<?xml version="1.0" encoding="utf-8" ?>
<svg xmlns="http://www.w3.org/2000/svg" xmlns:xlink="http://www.w3.org/1999/xlink" width="1024" height="1024">
	<path fill="#002947" d="M504.277 106.222C559.41 104.271 617.694 124.962 658.138 162.59C699.17 201.014 723.384 254.077 725.519 310.251C726.816 342.404 720.755 374.429 707.798 403.884C692.211 439.131 666.926 469.705 643.594 500.056C620.117 530.592 596.293 560.86 572.127 590.854L537.417 633.987C531.35 641.516 525.542 649.532 518.955 656.598C517.304 657.713 515.511 658.612 513.509 658.868C510.957 659.196 508.049 658.381 506.081 656.719C501.253 652.641 497.232 646.63 493.291 641.677L468.681 610.457L403.688 528.981C384.147 504.601 364.705 480.215 346.91 454.508C337.311 440.639 327.861 426.371 320.338 411.243C308.083 386.601 300.651 357.868 299.232 330.394C296.177 272.772 316.259 216.316 355.018 173.568C392.877 131.608 448.525 109.138 504.277 106.222Z"/>
	<path fill="#D14D39" d="M404.007 247.746C432.49 247.574 460.974 247.623 489.456 247.89L641.01 248.003C640.226 324.361 640.98 400.798 640.969 477.164C634.216 487.646 624.386 498.614 616.444 508.434C593.561 508.731 570.637 508.461 547.75 508.415L540.524 508.38C540.337 490.225 545.436 458.513 532.137 444.41C527.024 438.988 519.885 436.343 512.531 436.198C505.246 436.054 498.164 438.328 492.932 443.576C482.41 454.129 483.998 470.642 484.068 484.277L484.093 508.424L407.545 508.438C399.264 498.385 391.391 487.902 383.51 477.531L383.499 248.001L404.007 247.746Z"/>
	<path fill="#002947" d="M430.004 269.138C434.095 268.88 438.309 269.141 442.194 270.523C448.126 272.633 452.904 277.129 455.371 282.921C459.043 291.365 459.449 322.011 456.046 330.342C451.068 333.737 442.448 332.231 436.698 332.014C428.982 332.36 417.365 334.228 410.566 330.326C409.45 328.76 408.928 327.247 408.491 325.376C406.755 317.952 407.276 296.451 408.865 288.912C409.51 285.701 410.756 282.64 412.537 279.892C416.705 273.506 422.756 270.562 430.004 269.138Z"/>
	<path fill="#F3B65A" d="M431.966 281.022C435.763 281.086 439.471 282.002 442.146 284.872C449.143 292.38 446.081 310.734 445.579 320.112L435.25 320.088L420.559 320.066C420.409 311.221 418.399 295.414 422.538 287.81C424.753 283.742 427.777 282.36 431.966 281.022Z"/>
	<path fill="#002947" d="M429.459 429.111C434.709 428.863 439.744 429.158 444.517 431.646C450.55 434.792 454.766 440.467 456.646 446.946C458.544 453.49 459.844 485.5 455.966 490.139C453.259 493.378 441.021 492.043 436.865 491.919C430.646 492.125 416.679 493.78 411.621 490.914C409.917 489.949 409.069 487.361 408.585 485.589C406.731 478.813 407.328 456.878 408.674 449.733C409.278 446.524 410.337 443.443 412.034 440.64C416.043 434.017 422.187 430.793 429.459 429.111Z"/>
	<path fill="#F3B65A" d="M431.328 441.006C431.574 440.999 431.82 440.987 432.066 440.986C435.756 440.969 439.677 442.31 442.204 445.06C448.96 452.413 446.109 470.015 445.676 479.515L436.25 479.507L420.544 479.498C420.494 470.913 418.609 457.126 421.894 449.17C423.838 444.463 426.841 442.762 431.328 441.006Z"/>
	<path fill="#002947" d="M509.642 269.134C513.791 268.869 517.773 269.168 521.688 270.699C527.769 273.077 532.41 278.03 534.85 284.037C538.518 293.067 538.583 322.073 534.607 331.042C528.639 332.981 522.753 332.418 516.621 332.017C508.854 332.106 497.027 334.331 490.075 330.685C488.832 328.8 488.21 326.792 487.795 324.576C486.363 316.934 486.713 295.946 488.4 288.265C489.142 284.885 490.46 281.636 492.473 278.808C496.705 272.862 502.741 270.378 509.642 269.134Z"/>
	<path fill="#F3B65A" d="M510.941 281.064C514.785 281.199 518.557 282.143 521.233 285.055C527.527 291.901 524.739 310.942 524.48 320.105L514.125 320.088L499.1 320.088C498.785 310.865 496.631 295.498 501.549 287.326C503.852 283.498 506.777 282.201 510.941 281.064Z"/>
	<path fill="#002947" d="M587.957 269.109C592.645 268.894 597.079 269.149 601.439 271.142C607.365 273.852 611.877 279.081 614.071 285.175C617.067 293.495 617.676 322.751 613.974 330.379C609.447 333.86 600.213 332.159 594.744 331.988C587.02 332.273 576.022 333.939 568.851 330.503C567.693 329.227 567.293 327.607 566.903 325.965C565.126 318.489 565.527 297.594 567.027 289.718C567.713 286.114 568.961 282.613 570.994 279.541C575.046 273.418 581.067 270.652 587.957 269.109Z"/>
	<path fill="#F3B65A" d="M590.325 281.125C594.279 281.504 597.685 282.476 600.393 285.579C606.401 292.46 603.918 311.295 603.542 320.107L591.75 320.088L577.93 320.099C577.413 310.679 575.339 294.74 580.828 286.68C583.252 283.12 586.232 281.961 590.325 281.125Z"/>
	<path fill="#002947" d="M428.782 349.14C430.127 349.03 431.483 349.045 432.832 349.07C439.619 349.193 446.251 351.221 450.985 356.334C458.866 364.848 457.866 375.899 457.932 386.57C457.963 391.67 458.285 396.862 458.076 401.955C457.955 404.907 457.406 408.456 455.004 410.454C451.55 413.328 442.21 411.954 437.895 411.773L413.006 411.88C411.049 410.568 409.37 409.675 408.621 407.317C406.844 401.728 407.743 377.145 408.715 370.683C409.19 367.524 410.102 364.081 411.576 361.242C415.076 354.499 421.938 351.337 428.782 349.14Z"/>
	<path fill="#F3B65A" d="M432.411 361.097C436.159 361.552 439.36 362.299 442.079 365.109C448.676 371.923 446.113 390.457 445.786 399.611L435.25 399.596L420.604 399.596C420.371 390.842 418.437 374.343 423.129 366.838C425.402 363.202 428.356 361.962 432.411 361.097Z"/>
	<path fill="#002947" d="M587.469 349.103C592.415 348.914 596.942 349.187 601.536 351.314C607.481 354.066 611.924 359.229 614.118 365.368C617.111 373.745 617.691 402.146 614.007 409.985C609.908 413.53 599.998 412.054 594.819 411.917C587.161 412.073 576.256 414.133 569.269 410.63C567.97 409.044 567.289 407.385 566.817 405.388C565.064 397.973 565.525 377.109 567.052 369.339C567.7 366.043 568.9 362.794 570.713 359.96C574.702 353.723 580.511 350.759 587.469 349.103Z"/>
	<path fill="#F3B65A" d="M589.867 361.108C593.818 361.44 597.285 362.27 600.072 365.29C606.752 372.529 603.954 390.179 603.56 399.609L592.25 399.596L577.937 399.596C577.533 390.374 575.343 375.18 580.446 367.079C582.75 363.423 585.833 362.141 589.867 361.108Z"/>
	<path fill="#002947" d="M587.533 429.111C590.556 428.94 593.728 428.956 596.703 429.592C602.971 430.947 608.405 434.82 611.73 440.303C618.57 451.401 617.235 478.319 614.086 490.676C607.886 492.666 601.781 492.089 595.373 491.91C587.433 492.094 576.189 493.857 568.996 490.359C567.723 488.592 567.104 486.76 566.686 484.625C565.311 477.61 565.598 457.205 566.891 449.909C567.575 446.054 568.899 442.362 571.126 439.12C575.116 433.311 580.804 430.479 587.533 429.111Z"/>
	<path fill="#F3B65A" d="M589.343 441.07C593.551 441.332 597.283 441.937 600.163 445.307C606.582 452.817 604.062 470.238 603.554 479.516L593.087 479.431L577.967 479.412C577.504 470.206 575.481 456.024 580.045 447.782C582.247 443.805 585.178 442.382 589.343 441.07Z"/>
	<path fill="#002947" d="M508.338 349.153C513.906 348.705 519.368 349.355 524.29 352.191C529.915 355.479 534.009 360.86 535.679 367.158C538.111 375.988 538.933 402.687 534.47 410.433C530.682 413.545 521.94 412.171 517.196 411.953C509.088 412.064 497.584 413.816 490.174 410.369C489.183 409.186 488.707 407.68 488.289 406.212C486.204 398.883 486.73 376.958 488.177 369.153C488.709 366.193 489.739 363.344 491.223 360.728C495.101 354.053 501.143 351 508.338 349.153Z"/>
	<path fill="#F3B65A" d="M511.275 361.106C515.035 361.507 518.279 362.125 521.001 364.979C527.719 372.025 524.701 390.296 524.464 399.606L512.987 399.595L499.104 399.585C498.84 390.526 496.843 376.274 501.275 368.116C503.578 363.877 506.875 362.39 511.275 361.106Z"/>
	<path fill="#1A84AF" d="M508.058 122.24C553.928 122.897 591.707 132.466 629.434 159.609C671.411 190.17 699.433 236.238 707.267 287.567C709.788 303.677 710.224 320.044 708.566 336.266C703.883 385.574 682.589 420.279 654.121 459.569C653.273 435.488 653.977 411.142 653.977 387.037L653.982 248.315C657.173 247.81 659.029 247.187 661.541 245.015C662.897 243.842 664.027 242.407 664.006 240.516C663.986 238.657 662.897 236.999 661.555 235.794C654.467 229.426 633.272 231.919 623.793 232.299C623.353 223.006 623.57 213.664 623.717 204.364C623.844 196.34 624.857 187.238 622.863 179.436C622.083 176.387 620.43 173.717 618.216 171.495C615.608 168.876 612.164 166.809 608.509 166.111C598.105 164.123 586.858 165.442 576.3 165.476L516.75 165.499L453.999 165.479C441.682 165.409 428.484 163.913 416.335 166.088C412.431 166.787 409.008 168.359 406.161 171.176C403.758 173.521 402.074 176.504 401.31 179.774C399.506 187.307 400.385 195.601 400.429 203.292L400.515 232.109C390.745 231.907 370.673 229.721 362.657 234.952C361.172 235.92 360.23 237.111 359.919 238.898C359.56 240.959 360.887 243.423 362.006 245.043C363.996 247.921 366.854 247.975 370.018 248.438L369.962 459.516C339.211 419.328 316.45 375.303 315.016 323.762C313.684 271.857 332.768 221.502 368.166 183.517C404.775 145.276 455.127 123.22 508.058 122.24Z"/>
	<path fill="#1A84AF" d="M419.449 523.491L605.029 523.513C599.544 531.749 592.67 539.196 586.473 546.911L554.142 587.516C539.837 604.459 526.437 622.137 512.308 639.229C501.194 626.638 490.898 613.009 480.416 599.879L419.449 523.491Z"/>
	<path fill="#D14D39" d="M538.143 180.23C549.596 180.461 602.703 178.29 609.347 182.141C613.367 188.761 611.267 222.857 610.579 232.318C596.35 232.75 582.026 232.415 567.787 232.416L487.25 232.414C473.508 232.371 424.11 234.428 414.503 231.273C413.466 230.268 413.289 228.966 413.11 227.584C412.27 221.099 413.012 213.989 412.974 207.428C412.936 200.818 412.087 193.408 412.92 186.878C413.168 184.93 413.539 183.242 414.731 181.661C423.77 178.818 445.165 180.411 455.522 180.425C482.98 180.462 510.717 181.263 538.143 180.23Z"/>
	<path fill="#F3E9E2" d="M485.808 189.77C494.627 188.744 502.62 195.029 503.703 203.841C504.785 212.653 498.55 220.685 489.745 221.823C480.861 222.972 472.741 216.669 471.649 207.778C470.556 198.887 476.911 190.806 485.808 189.77Z"/>
	<path fill="#D14D39" d="M486.135 196.774C491.086 195.932 495.786 199.252 496.647 204.201C497.508 209.149 494.205 213.862 489.26 214.741C484.289 215.626 479.545 212.301 478.68 207.326C477.814 202.351 481.157 197.62 486.135 196.774Z"/>
	<path fill="#F3E9E2" d="M439.015 190.431L446.292 190.442L446.328 202.989L457.463 202.987L457.427 190.414L464.517 190.447L464.521 221.358C462.242 221.691 459.737 221.536 457.425 221.581L457.424 209.487L446.274 209.503L446.336 221.562L439.034 221.503L439.015 190.431Z"/>
	<path fill="#F3E9E2" d="M539.169 190.419L560.576 190.433L560.538 197.554C558.117 197.359 555.676 197.125 553.249 197.034C550.663 196.936 548.528 197.133 546.595 198.96C546.084 200.258 545.962 200.426 546.252 201.771C548.745 204.161 556.272 203.039 559.565 202.994L559.646 209.5L546.379 209.493C546.203 210.024 545.815 210.94 545.776 211.531C545.701 212.654 546.1 213.211 546.971 213.892C549.635 215.977 557.247 214.724 560.562 214.51L560.566 221.5L539.143 221.497C539.235 211.138 539.243 200.778 539.169 190.419Z"/>
	<path fill="#F3E9E2" d="M508.482 190.411L531.597 190.433L531.557 197.015L523.576 197.019L523.538 212.759L523.556 221.496L516.494 221.505L516.497 197.005L508.486 197.037L508.482 190.411Z"/>
	<path fill="#F3E9E2" d="M569.487 190.412L576.621 190.449C576.514 198.549 576.566 206.657 576.552 214.758C580.843 214.702 585.141 214.764 589.432 214.776L589.49 221.448C582.86 222.076 576.135 221.662 569.484 221.489L569.487 190.412Z"/>
	<path fill="#4C2F2E" d="M509.373 448.069C510.044 448.028 510.717 448.008 511.39 448.007C515.867 448.033 520.069 449.506 523.2 452.775C525.633 455.314 527.06 458.575 527.814 461.975C530.298 473.173 528.435 496.115 528.063 508.149L516.625 508.212C509.753 508.267 502.872 508.152 496 508.108C496.013 495.171 493.349 464.929 499.064 454.403C501.009 450.819 505.687 449.164 509.373 448.069Z"/>
	<path fill="#002947" d="M616.501 696.115C623.885 695.477 630.592 696.13 637.048 700.202C646.634 706.248 651.131 716.755 653.368 727.452C656.683 743.304 656.078 763.278 646.836 777.189C641.907 784.608 634.851 788.708 626.262 790.481C618.971 791.124 612.297 790.624 605.803 786.883C597.227 781.943 592.786 772.219 590.493 762.998C586.43 746.66 586.425 725.52 595.427 710.709C600.488 702.383 607.162 698.396 616.501 696.115ZM624.832 773.447C629.447 771.665 632.226 768.64 634.225 764.131C639.315 752.651 638.937 734.752 634.186 723.219C632.684 719.574 630.853 716.939 627.96 714.267C624.958 713.484 622.138 713.002 619.009 713.065C613.873 715.374 610.809 718.758 608.783 724.042C604.431 735.392 604.841 754.186 609.848 765.27C611.433 768.779 613.812 771.932 617.592 773.195C619.854 773.951 622.488 773.594 624.832 773.447Z"/>
	<path fill="#002947" d="M543.886 695.655C550.882 695.226 558.641 697.706 564.058 702.137C573.656 709.988 577.123 723.114 578.194 734.946C579.545 749.868 578.105 768.374 568.026 780.344C562.452 786.964 555.278 789.889 546.874 790.654C540.389 791.256 534.124 790.067 528.692 786.312C519.512 779.966 515.291 769.123 513.422 758.523C510.615 742.6 511.213 722.337 520.916 708.648C526.719 700.46 534.356 697.284 543.886 695.655ZM540.162 773.324C542.888 773.791 545.272 774.019 548.052 773.842C553.024 771.777 555.633 769.135 557.724 764.114C562.394 752.903 562.548 733.651 557.608 722.544C555.956 718.831 553.194 715.353 549.319 713.825C547.244 713.007 545.194 713.024 542.998 713.065C538.001 715.102 534.698 718.581 532.674 723.599C528.218 734.643 528.401 753.725 533.337 764.615C534.935 768.143 537.052 770.981 540.162 773.324Z"/>
	<path fill="#002947" d="M199.468 696.163C206.327 695.364 213.608 696.925 219.357 700.79C228.278 706.787 232.36 717.589 234.252 727.74C237.232 743.729 236.573 764.315 226.973 778.147C221.882 785.482 214.94 789.065 206.325 790.599C199.29 790.882 191.878 790.432 185.904 786.314C175.978 779.472 172.196 767.687 170.281 756.328C167.669 740.843 168.374 721.875 177.953 708.693C183.443 701.139 190.387 697.58 199.468 696.163ZM204.797 773.847C208.684 772.621 211.373 771.532 213.421 767.728C218.825 757.689 219.235 735.299 215.615 724.615C214.189 720.404 211.765 716.208 207.595 714.216C205.194 713.069 202.746 713.45 200.196 713.652C196.918 713.987 195.255 715.196 193.183 717.748C186.145 726.415 186.467 743.956 187.852 754.334C188.686 760.576 190.742 767.811 195.937 771.809C198.788 774.003 201.347 774.208 204.797 773.847Z"/>
	<path fill="#002947" d="M454.244 696.776C463.086 696.365 472.742 695.858 481.412 697.847C487.843 699.322 493.636 702.427 497.078 708.288C500.481 714.083 501.332 722.097 499.517 728.57C497.889 734.371 494.579 737.777 489.54 740.706C490.898 741.64 492.258 742.581 493.555 743.6C498.856 747.768 502.073 753.435 502.782 760.186C503.653 768.476 500.979 775.712 495.838 782.066C483.699 792.949 461.704 790.06 446.558 789.579C445.558 783.067 445.893 776.185 445.875 769.605C445.852 760.829 445.725 752.024 445.957 743.251C446.123 736.949 446.643 730.637 446.692 724.336C446.763 715.213 445.411 706.133 445.618 696.99C448.488 696.853 451.371 696.836 454.244 696.776ZM464.466 775.039C469.973 775.059 474.758 775.14 479.956 773.02C482.643 771.278 485.092 767.677 485.788 764.526C486.418 761.674 485.575 758.569 483.882 756.239C481.614 753.119 477.777 751.097 473.999 750.558C472.024 750.275 469.987 750.268 467.994 750.226C466.701 750.358 465.326 750.171 464.39 751.103C463.344 758.77 464.18 767.304 464.466 775.039ZM464.568 735.027C469.833 734.93 474.813 735.156 479.414 732.197C481.5 728.988 483.397 724.766 482.645 720.837C482.14 718.2 480.512 716.115 478.248 714.723C474.063 712.15 468.931 712.415 464.21 712.526L464.568 735.027Z"/>
	<path fill="#002947" d="M824.069 696.627C827.689 696.496 831.34 696.763 834.958 696.928C836.61 706.429 835.388 717.452 835.365 727.139L835.282 789.581C829.984 789.486 824.677 789.512 819.377 789.485C815.797 784.054 813.286 777.836 810.363 772.03C804.128 759.647 798.009 747.123 791.374 734.952C792.121 753.176 791.54 771.551 791.635 789.795C787.631 789.465 783.624 789.535 779.61 789.556L774.496 790.073C774.259 759.074 775.282 727.815 774.176 696.858C779.496 696.726 784.829 696.874 790.15 696.945C797.23 709.877 803.511 723.467 809.661 736.861C812.727 743.537 815.584 750.411 819.002 756.911C819.028 746.689 819.19 736.434 818.907 726.217C818.703 718.873 817.902 711.493 818.076 704.147C818.124 702.115 818.113 699.988 818.992 698.123C820.397 696.925 822.303 696.877 824.069 696.627Z"/>
	<path fill="#002947" d="M139.989 696.898C145.841 696.642 151.572 696.467 157.428 696.646C158.5 727.575 157.679 758.608 157.765 789.559C152.029 789.653 146.355 789.711 140.625 789.342C139.657 783.361 140.074 777.029 140.04 770.97C139.98 763.992 139.788 757.015 139.463 750.044L117.482 750.108C117.301 763.386 117.292 776.665 117.455 789.943C111.653 789.861 105.877 789.799 100.077 790.026C99.8928 759.012 100.395 728.008 99.9694 696.994C105.48 696.953 110.991 696.88 116.501 696.774L117.025 697.238C118.548 702.555 117.494 726.603 117.463 733.621C124.97 733.558 132.512 733.361 140.008 733.819C140.067 721.512 140.061 709.205 139.989 696.898Z"/>
	<path fill="#002947" d="M878.151 696.132C885.291 695.596 892.255 696.105 898.572 699.888C907.083 704.985 909.903 713.046 912 722.133C906.327 723.881 900.42 724.94 894.706 726.626C893.307 720.298 891.841 716.683 886.345 713.052C882.885 712.877 878.647 712.391 875.648 714.45C870.941 717.68 868.695 723.792 867.561 729.177C865.174 740.509 864.54 757.524 871.342 767.575C873.529 770.807 876.574 773.234 880.474 773.95C883.953 774.588 888.383 773.916 891.222 771.7C896.371 767.682 896.47 759.888 897.04 753.917C891.98 754.038 886.91 754.039 881.849 754.095C881.607 750.412 880.307 742.406 882.284 739.358C883.027 738.212 883.623 738.261 884.875 737.957C894.505 738.046 904.546 738.633 914.096 737.388C912.969 751.609 914.922 766.096 906.638 778.651C902.483 784.948 896.296 788.795 888.983 790.297C880.813 791.975 872.128 790.78 865.145 786.05C855.772 779.7 851.43 769.016 849.448 758.247C846.557 742.536 847.296 722.599 856.817 709.081C862.208 701.426 869.033 697.72 878.151 696.132Z"/>
	<path fill="#002947" d="M684.517 696.775C686.294 699.109 685.179 736.633 684.982 742.296C691.26 726.929 700.89 711.807 708.704 697.054C714.799 696.819 720.944 696.938 727.045 696.921C720.586 710.906 712.307 724.203 704.721 737.616C712.326 752.045 719.247 766.997 726.354 781.686C727.695 784.221 728.85 786.87 730.063 789.469C723.726 790.239 717.256 790.002 710.882 789.996C704.857 777.187 698.728 764.427 692.498 751.716C690.143 755.041 687.856 758.363 685.741 761.846C686.045 770.818 686.133 779.795 686.006 788.771C680.097 790.278 673.397 789.65 667.34 789.577L667.313 734.872C667.326 722.235 667.76 709.613 666.945 696.992C672.802 696.964 678.66 696.891 684.517 696.775Z"/>
	<path fill="#002947" d="M327.128 828.231C331.382 828.168 335.703 828.199 339.92 828.81C345.901 829.675 352.464 831.85 356.125 836.956C358.873 840.789 359.572 846.08 358.619 850.638C357.496 856.015 353.999 859.638 349.565 862.577C353.289 864.62 356.348 867.023 358.433 870.802C360.937 875.338 361.108 881.052 359.482 885.911C357.66 891.353 354.057 894.496 349.14 897.051C336.583 901.776 322.975 900.437 309.827 900.041C310.526 876.128 310.132 852.289 310.011 828.374C315.72 828.506 321.421 828.354 327.128 828.231ZM323.518 887.987C329.524 888.062 339.094 889.312 344.004 885.321C345.877 882.87 347.594 879.028 346.866 875.836C346.368 873.652 344.377 871.946 342.479 870.96C336.953 868.088 329.465 869.073 323.413 869.269L323.518 887.987ZM323.474 857.528L339.01 857.315L342.652 854.868C344.074 852.863 345.16 851.119 344.813 848.57C344.468 846.035 342.873 843.643 341.315 841.679C335.324 839.993 329.505 840.685 323.39 840.432L323.474 857.528Z"/>
	<path fill="#002947" d="M351.422 696.75L351.88 696.888C353.241 698.751 352.591 710.661 352.599 713.549C342.403 713.35 332.193 713.634 321.991 713.453L321.994 735.004C330.925 734.991 340.692 733.13 349.503 734.163C348.933 739.738 349.066 745.336 349.062 750.934C340.168 749.836 330.953 750.597 322.025 751.05L322.06 773.281C331.962 772.667 342.122 773.453 352.089 773.185C352.872 774.707 352.611 776.46 352.571 778.125L352.379 790.005C344.399 789.33 336.487 789.797 328.499 789.895C320.35 789.995 312.202 789.879 304.052 790.027L303.962 735.038C303.887 722.33 303.366 709.753 304.002 697.042C319.747 696.419 335.656 696.84 351.422 696.75Z"/>
	<path fill="#002947" d="M505.001 828.443C509.721 828.448 514.447 828.325 519.167 828.255C519.731 835.063 520.109 897.888 519.196 899.865L517.625 900.007C513.405 900.032 509.217 900.055 505.01 900.428L504.944 870.622C496.75 869.426 488.266 869.929 480.014 870.066C480.124 880.079 480.147 890.092 480.083 900.104C475.444 899.938 470.752 900.102 466.108 900.12C464.904 876.29 465.65 852.236 466 828.386C470.675 828.591 475.366 828.475 480.044 828.434C479.761 837.928 479.951 847.455 479.982 856.953C488.261 856.523 496.537 857.08 504.832 856.459C505.167 847.143 504.98 837.767 505.001 828.443Z"/>
	<path fill="#002947" d="M546.781 827.728C547.482 827.593 548.322 827.627 549.027 827.596C551.213 829.931 549.098 856.532 549.041 861.511C555.496 849.862 564.904 839.136 572.901 828.503C578.813 828.677 584.563 828.869 590.426 827.955C582.213 838.409 574.297 849.178 565.904 859.477C571.429 869.83 578.886 879.948 585.593 889.583C588.011 892.821 590.204 896.119 591.863 899.81C586.476 900.634 581.308 900.332 575.89 899.928C569.452 889.874 563.151 879.783 556.452 869.897C554.198 871.998 552.095 874.256 549.962 876.48C550.075 884.305 549.517 892.185 549.435 900.022L535.435 900.09C535.482 876.097 535.917 852.007 535.055 828.029C538.974 828.053 542.867 827.91 546.781 827.728Z"/>
	<path fill="#002947" d="M657.986 828.178C662.659 828.531 667.349 828.165 672.021 827.925C673.167 838.583 672.492 849.75 672.408 860.469C680.724 850.145 687.644 838.81 695.891 828.485C701.612 827.92 707.467 828.052 713.214 827.957C705.935 839.332 696.249 849.297 688.529 860.486C693.98 868.234 699.343 876.042 704.618 883.911C707.954 889.231 711.263 894.546 714.368 900.006L698.497 900.191C691.57 890.533 685.839 879.881 679.17 870.002C676.888 872.292 674.662 874.643 672.413 876.965L672.503 900.02L658.03 900.109C658.641 876.185 658.402 852.107 657.986 828.178Z"/>
	<path fill="#002947" d="M276.137 696.762C282.198 696.361 288.216 696.796 294.26 697.22C295.332 702.668 295.291 707.963 294.332 713.415L275.111 713.618C274.861 738.86 274.494 764.214 275.134 789.45C271.254 789.376 260.934 790.501 257.996 788.863L257.858 787.124C258.376 772.028 258.418 756.92 257.984 741.821C257.759 732.602 256.506 722.637 257.871 713.528C251.611 713.552 245.353 713.694 239.098 713.954C238.874 708.344 238.616 702.674 237.908 697.104C250.589 696.419 263.43 696.794 276.137 696.762Z"/>
	<path fill="#002947" d="M366.251 696.73C371.857 696.936 377.483 696.841 383.093 696.836C384.154 721.695 384.019 748.123 383.233 772.982C392.176 773.066 401.119 772.97 410.058 772.695C410.355 777.39 411.715 785.998 408.901 789.834C402.33 790.251 371.279 790.74 365.74 789.391C364.569 781.296 366.02 773.379 365.941 765.284C365.892 760.322 364.89 755.41 364.741 750.447C364.435 740.212 365.263 729.667 365.526 719.414C365.716 712.027 365.209 704.002 366.251 696.73Z"/>
	<path fill="#002947" d="M422.033 827.593C427.871 827.304 433.382 827.466 438.77 830.098C445.678 833.471 448.492 838.876 450.975 845.736C446.85 847.407 442.435 848.129 438.082 848.943C437.201 847.114 436.242 845.131 434.845 843.641C432.297 840.924 428.471 839.4 424.766 839.46C422.537 839.496 420.522 840.046 419.035 841.806C417.691 843.396 417.269 846.021 417.614 848.022C419.068 856.459 438.501 860.056 445.007 864.961C448.925 867.914 451.589 872.012 452.141 876.937C452.76 882.307 451.22 887.703 447.861 891.939C443.062 897.926 436.825 899.755 429.57 900.592C425.22 900.612 420.851 900.266 416.722 898.803C408.185 895.78 404.204 889.168 400.588 881.456L413.849 876.73C415.459 880.096 417.017 883.749 420.087 886.041C422.624 887.935 425.702 889.151 428.869 888.565C431.776 888.028 434.953 886.764 436.634 884.228C437.71 882.605 438.044 880.792 437.531 878.905C435.423 871.153 419.464 868.232 413.074 864.508C408.569 861.883 404.635 857.922 403.445 852.692C402.319 847.743 403.516 841.685 406.222 837.421C409.945 831.555 415.574 829.181 422.033 827.593Z"/>
	<path fill="#002947" d="M642.782 828.248L643.656 828.21C645.233 830.902 644.245 837.294 644.128 840.525C635.057 841.022 625.01 842.062 616.031 840.63C615.491 846.199 615.528 851.86 615.392 857.452C624.204 857.367 632.675 856.668 641.433 858.138C641.637 862.139 641.237 866.106 640.91 870.09C632.286 869.729 623.857 869.625 615.237 870.221C614.96 875.892 614.837 881.617 615.416 887.271C623.765 887.643 632.126 887.711 640.48 887.473C641.61 887.292 642.498 887.056 643.617 887.402C645.721 890.357 644.089 895.966 644.341 899.547C644.353 899.714 644.369 899.881 644.383 900.049L601.726 900.086C602.206 891.573 601.584 882.878 601.558 874.339C601.551 858.994 601.684 843.65 601.955 828.308C615.551 828.482 629.196 828.871 642.782 828.248Z"/>
	<path fill="#002947" d="M757.109 696.25L758.013 696.465C760.051 700.847 758.981 777.9 758.949 790.002L742.875 789.944L742.113 789.931C741.911 789.717 741.639 789.552 741.507 789.289C740.584 787.449 741.464 707.31 741.499 696.914C746.679 696.538 751.916 696.451 757.109 696.25Z"/>
	<path fill="#002947" d="M374.109 828.114L388.065 827.821C389.05 835.41 388.512 843.623 388.49 851.272C388.444 867.538 388.016 883.799 388.056 900.062L374.566 900.107C374.113 884.791 373.98 869.467 374.168 854.146C374.232 845.575 374.846 836.647 374.109 828.114Z"/>
</svg>
